<?xml version="1.0" standalone="no"?><svg xmlns="http://www.w3.org/2000/svg" viewBox="0 0 1440 320"><path fill="#E36278" fill-opacity="1" d="M0,128L26.7,106.7C53.3,85,107,43,160,32C213.3,21,267,43,320,85.3C373.3,128,427,192,480,202.7C533.3,213,587,171,640,138.7C693.3,107,747,85,800,90.7C853.3,96,907,128,960,117.3C1013.3,107,1067,53,1120,37.3C1173.3,21,1227,43,1280,48C1333.3,53,1387,43,1413,37.3L1440,32L1440,320L1413.3,320C1386.7,320,1333,320,1280,320C1226.7,320,1173,320,1120,320C1066.7,320,1013,320,960,320C906.7,320,853,320,800,320C746.7,320,693,320,640,320C586.7,320,533,320,480,320C426.7,320,373,320,320,320C266.7,320,213,320,160,320C106.7,320,53,320,27,320L0,320Z"></path></svg>